<svg viewBox="0 0 13 14" fill="none" xmlns="http://www.w3.org/2000/svg">
<path d="M0.42894 0.92894C0.51186 0.845809 0.610367 0.779854 0.718817 0.734852C0.827266 0.689851 0.943529 0.666687 1.06095 0.666687C1.17836 0.666687 1.29462 0.689851 1.40307 0.734852C1.51152 0.779854 1.61003 0.845809 1.69295 0.92894L6.41692 5.6547L11.1409 0.92894C11.2239 0.845944 11.3224 0.780107 11.4309 0.73519C11.5393 0.690273 11.6555 0.667154 11.7729 0.667154C11.8903 0.667154 12.0065 0.690273 12.1149 0.73519C12.2234 0.780107 12.3219 0.845944 12.4049 0.92894C12.4879 1.01194 12.5537 1.11047 12.5987 1.21891C12.6436 1.32735 12.6667 1.44357 12.6667 1.56095C12.6667 1.67832 12.6436 1.79454 12.5987 1.90298C12.5537 2.01142 12.4879 2.10995 12.4049 2.19295L7.67915 6.91692L12.4049 11.6409C12.4879 11.7239 12.5537 11.8224 12.5987 11.9309C12.6436 12.0393 12.6667 12.1555 12.6667 12.2729C12.6667 12.3903 12.6436 12.5065 12.5987 12.6149C12.5537 12.7234 12.4879 12.8219 12.4049 12.9049C12.3219 12.9879 12.2234 13.0537 12.1149 13.0987C12.0065 13.1436 11.8903 13.1667 11.7729 13.1667C11.6555 13.1667 11.5393 13.1436 11.4309 13.0987C11.3224 13.0537 11.2239 12.9879 11.1409 12.9049L6.41692 8.17915L1.69295 12.9049C1.60995 12.9879 1.51142 13.0537 1.40298 13.0987C1.29454 13.1436 1.17832 13.1667 1.06095 13.1667C0.943571 13.1667 0.827346 13.1436 0.718906 13.0987C0.610466 13.0537 0.511936 12.9879 0.42894 12.9049C0.345944 12.8219 0.280107 12.7234 0.23519 12.6149C0.190273 12.5065 0.167154 12.3903 0.167154 12.2729C0.167154 12.1555 0.190273 12.0393 0.23519 11.9309C0.280107 11.8224 0.345944 11.7239 0.42894 11.6409L5.1547 6.91692L0.42894 2.19295C0.345809 2.11003 0.279854 2.01152 0.234852 1.90307C0.189851 1.79462 0.166687 1.67836 0.166687 1.56095C0.166687 1.44353 0.189851 1.32727 0.234852 1.21882C0.279854 1.11037 0.345809 1.01186 0.42894 0.92894Z" fill="#DC3545"/>
</svg>
