<svg viewBox="0 0 15 15" fill="none" xmlns="http://www.w3.org/2000/svg">
<path d="M0.780441 14.1667C0.672592 14.1665 0.565961 14.1438 0.467329 14.1002C0.368697 14.0566 0.280224 13.9929 0.207533 13.9132C0.133528 13.8342 0.0770569 13.7404 0.0418236 13.638C0.00659027 13.5356 -0.00660961 13.427 0.00308928 13.3191L0.19354 11.2244L8.99161 2.427L11.7411 5.17647L2.94537 13.973L0.85118 14.1636C0.827664 14.1657 0.804057 14.1668 0.780441 14.1667ZM12.2899 4.62673L9.5412 1.87726L11.19 0.228049C11.2622 0.155754 11.3479 0.0984017 11.4423 0.0592713C11.5366 0.020141 11.6378 0 11.7399 0C11.8421 0 11.9432 0.020141 12.0376 0.0592713C12.132 0.0984017 12.2177 0.155754 12.2899 0.228049L13.9387 1.87726C14.011 1.94948 14.0683 2.03523 14.1074 2.12963C14.1465 2.22402 14.1667 2.3252 14.1667 2.42739C14.1667 2.52957 14.1465 2.63075 14.1074 2.72515C14.0683 2.81954 14.011 2.9053 13.9387 2.97752L12.2907 4.62595L12.2899 4.62673Z" fill="#0D6EFD" fill-opacity="0.72"/>
</svg>
