<svg viewBox="0 0 12 15" fill="none" xmlns="http://www.w3.org/2000/svg">
<path d="M8.16669 2.50001H10.6667C11.1667 2.50001 11.5 2.83334 11.5 3.33334V4.16668H0.666687V3.33334C0.666687 2.83334 1.08335 2.50001 1.50002 2.50001H4.00002C4.16669 1.58334 5.08335 0.833344 6.08335 0.833344C7.08335 0.833344 8.00002 1.58334 8.16669 2.50001ZM4.83335 2.50001H7.33335C7.16669 2.00001 6.58335 1.66668 6.08335 1.66668C5.58335 1.66668 5.00002 2.00001 4.83335 2.50001ZM1.50002 5.00001H10.6667L9.91669 13.4167C9.91669 13.8333 9.50002 14.1667 9.08335 14.1667H3.08335C2.66669 14.1667 2.33335 13.8333 2.25002 13.4167L1.50002 5.00001Z" fill="#DC3545" fill-opacity="0.72"/>
</svg>
